<?xml version="1.0" encoding="utf-8"?>
<!-- Generator: Adobe Illustrator 22.0.1, SVG Export Plug-In . SVG Version: 6.00 Build 0)  -->
<svg version="1.1" id="Ebene_1" 
	xmlns="http://www.w3.org/2000/svg" 
	xmlns:xlink="http://www.w3.org/1999/xlink" x="0px" y="0px" viewBox="0 0 290.6 85.7" style="enable-background:new 0 0 290.6 85.7;" xml:space="preserve">
	<style type="text/css">
	.st0{fill:#ffd054;}
	.st1{fill:#f18700;}
	</style>
	<polygon class="st0" points="184.3,78 141.7,78 141.7,70.9 134.6,70.9 134.6,35.4 120.5,35.4 120.5,70.9 113.4,70.9 113.4,78 
	14.2,78 14.2,70.9 7.1,70.9 7.1,21.3 14.2,21.3 14.2,14.2 35.4,14.2 35.4,21.3 42.5,21.3 42.5,42.5 28.3,42.5 28.3,56.7 99.2,56.7 
	99.2,21.3 106.3,21.3 106.3,14.2 148.8,14.2 148.8,21.3 155.9,21.3 155.9,56.7 170.1,56.7 170.1,21.3 177.2,21.3 177.2,14.2 
	219.7,14.2 219.7,21.3 226.8,21.3 226.8,56.7 240.9,56.7 240.9,21.3 248,21.3 248,14.2 276.4,14.2 276.4,21.3 283.5,21.3 
	283.5,35.4 262.2,35.4 262.2,70.9 255.1,70.9 255.1,78 212.6,78 212.6,70.9 205.5,70.9 205.5,35.4 191.3,35.4 191.3,70.9 
	184.3,70.9 184.3,78 "/>
	<polygon class="st1" points="85,35.4 78,35.4 78,42.3 63.8,42.5 63.8,35.4 56.7,35.4 56.6,21.3 63.8,21.3 63.7,14.2 77.9,14.2 
	77.9,21.3 85,21.3 85,35.4 "/>
</svg>
