<svg id="Ebene_1" data-name="Ebene 1" xmlns="http://www.w3.org/2000/svg" viewBox="0 0 1310.59 502.29"><defs><style>.cls-1{fill:#b49f88;}</style></defs><title>LOGO_HEAD</title><path class="cls-1" d="M825.36,387H645.31v-29.8h-30V207.29h-60V356.91H525.84a4.54,4.54,0,0,0-.5.54.83.83,0,0,0-.15.43q0,14.25,0,28.5c0,.14-.12.28-.26.56H105.3V357.18H75.39v-210H105V117.64c4.34-.77,76.05-1,90.05-.35V147h30V237H165.28v59.88H464.85c-.07.06.07,0,.16-.17a.77.77,0,0,0,.17-.43V147.24h29.89v-30H675.12v29.83H705V296.53c4.26.78,46.58,1,60,.37V147.21h30.05V117.3h180v29.61h29.33a4.84,4.84,0,0,1,.55.53.84.84,0,0,1,.16.43V296.93h59.89V147.18h30v-30H1215v29.19a5.39,5.39,0,0,0,.53.54.84.84,0,0,0,.43.16H1245V207h-89.77V357h-30v29.88H945.49c.07.08-.06,0-.15-.18a.92.92,0,0,1-.15-.43c0-9.64,0-19.28,0-29.09H915.29v-150h-60V357.06H825.36Z"/><path class="cls-1" d="M401.48,207.12h-29.7v29.75H311.72V207.28H282.24c-.81-4.25-1.07-45.42-.4-60h29.7v-30H371.6v29.84h29.88Z"/></svg>