<?xml version="1.0" encoding="utf-8"?>
<!-- Generator: Adobe Illustrator 22.0.1, SVG Export Plug-In . SVG Version: 6.00 Build 0)  -->
<svg version="1.1" xmlns="http://www.w3.org/2000/svg" xmlns:xlink="http://www.w3.org/1999/xlink" x="0px" y="0px"
	 viewBox="0 0 290.6 304.7" style="enable-background:new 0 0 290.6 304.7;" xml:space="preserve">
<style type="text/css">
	.st0{display:none;}
	.st1{display:inline;}
	.st2{fill:#373531;}
	.st3{fill:#797258;}
	.st4{fill:#AE9880;}
</style>
<g id="BG" class="st0">
	<rect class="st1" width="290.6" height="304.7"/>
</g>
<g id="Bottom">
	<polygon class="st2" points="7.1,198.4 14.2,198.4 14.2,212.6 21.3,212.6 21.3,226.8 28.3,226.8 28.3,233.9 35.4,233.9 35.4,248 
		42.5,248 42.5,255.1 49.6,255.1 49.6,262.2 56.7,262.2 56.7,269.3 70.9,269.3 70.9,276.4 78,276.4 78,283.5 92.1,283.5 92.1,290.6 
		108.3,290.6 104.3,269.3 104.3,193.4 7.1,189.4 7.1,198.4 	"/>
	<polygon class="st2" points="184.3,191.4 184.3,269.5 182.3,290.6 198.4,290.6 198.4,283.5 212.6,283.5 212.6,276.4 219.7,276.4 
		219.7,269.2 233.9,269.2 233.9,262.2 240.9,262.2 240.9,255.1 248,255.1 248,248.1 255.1,248 255.1,233.9 262.2,233.9 262.2,226.8 
		269.3,226.8 269.3,212.6 276.4,212.6 276.4,198.4 283.5,198.4 283.5,189.4 	"/>
	<polygon class="st2" points="101.2,35.4 99.2,21.3 92.1,21.3 92.1,28.4 78,28.4 78,35.4 70.9,35.4 70.9,42.5 56.7,42.5 56.7,49.6 
		49.6,49.6 49.6,56.7 42.5,56.7 42.5,63.8 35.4,63.8 35.4,78 28.3,78 28.3,85.1 21.3,85.1 21.3,99.2 14.2,99.2 14.2,106.3 
		18.3,108.3 21.3,106.3 99.2,99.2 	"/>
	<polygon class="st2" points="189.3,35.4 191.3,21.3 198.4,21.3 198.4,28.4 212.6,28.4 212.6,35.4 219.7,35.4 219.7,42.5 
		233.9,42.5 233.9,49.6 240.9,49.6 240.9,56.7 248,56.7 248,63.8 255.1,63.8 255.1,78 262.2,78 262.2,85.1 269.3,85.1 269.3,99.2 
		276.4,99.2 276.4,106.3 272.3,108.3 269.3,106.3 191.3,99.2 	"/>
</g>
<g id="Edge">
	<polygon class="st3" points="191.3,269.3 191.3,283.5 184.3,283.5 184.3,290.6 177.2,290.6 177.2,297.7 113.3,297.6 113.4,290.6 
		106.3,290.6 106.3,283.5 99.2,283.5 99.2,269.3 105.3,268.3 113.4,276.4 120.5,281.5 170.1,281.5 177.2,276.4 185.3,268.3 
		191.3,269.3 	"/>
	<polygon class="st3" points="283.5,177.2 283.5,191.4 276.4,191.4 276.4,198.4 269.3,198.4 269.3,205.5 189.3,205.5 191.3,191.4 
		262.2,189.4 269.3,184.3 277.4,176.2 283.5,177.2 	"/>
	<polygon class="st3" points="7.1,177.2 7.1,191.4 14.2,191.4 14.2,198.4 21.3,198.4 21.3,205.5 101.2,205.5 99.2,191.4 26.3,189.4 
		21.3,184.3 13.2,176.2 7.1,177.2 	"/>
</g>
<g id="Kreuz">
	<g>
		<polygon class="st4" points="106.3,21.3 99.2,21.3 99.2,99.2 106.3,99.3 		"/>
		<rect x="184.3" y="21.3" class="st4" width="7.1" height="78"/>
		<rect x="184.3" y="191.4" class="st4" width="7.1" height="78"/>
		<rect x="99.2" y="191.4" class="st4" width="7.1" height="78"/>
		<rect x="21.3" y="99.2" class="st4" width="78" height="7.1"/>
		<polygon class="st4" points="191.3,106.3 269.3,106.3 269.3,99.2 191.3,99.2 191.3,106.3 		"/>
		<rect x="113.4" y="7.1" class="st4" width="63.8" height="7.1"/>
		<polygon class="st4" points="276.4,113.4 276.4,177.2 283.5,177.2 283.5,113.4 		"/>
		<rect x="7.1" y="113.4" class="st4" width="7.1" height="63.8"/>
		<polygon class="st4" points="113.4,21.3 113.4,14.2 106.3,14.2 106.3,21.3 113.4,21.3 		"/>
		<polygon class="st4" points="177.2,21.3 184.3,21.3 184.3,14.2 177.2,14.2 177.2,21.3 		"/>
		<rect x="14.2" y="106.3" class="st4" width="7.1" height="7.1"/>
		<polygon class="st4" points="269.3,113.4 276.4,113.4 276.4,106.3 269.3,106.3 269.3,113.4 		"/>
		<rect x="113.4" y="276.4" class="st4" width="63.8" height="7.1"/>
		<polygon class="st4" points="177.2,269.3 177.2,276.4 184.3,276.4 184.3,269.3 177.2,269.3 		"/>
		<polygon class="st4" points="113.4,269.3 106.3,269.3 106.3,276.4 113.4,276.4 113.4,269.3 		"/>
		<rect x="191.3" y="184.3" class="st4" width="78" height="7.1"/>
		<rect x="269.3" y="177.2" class="st4" width="7.1" height="7.1"/>
		<polygon class="st4" points="99.2,184.3 21.3,184.3 21.3,191.4 99.2,191.4 99.2,184.3 		"/>
		<polygon class="st4" points="21.3,177.2 14.2,177.2 14.2,184.3 21.3,184.3 21.3,177.2 		"/>
	</g>
	<rect x="141.7" y="35.4" class="st2" width="7.1" height="7.1"/>
	<polygon class="st2" points="141.7,49.6 134.6,49.6 134.6,42.5 141.7,42.5 	"/>
	<rect x="148.8" y="42.5" class="st2" width="7.1" height="7.1"/>
	<rect x="35.4" y="141.7" class="st2" width="7.1" height="7.1"/>
	<polygon class="st2" points="49.6,148.8 49.6,155.9 42.5,155.9 42.5,148.8 	"/>
	<rect x="42.5" y="134.7" class="st2" width="7.1" height="7.1"/>
	<rect x="141.7" y="248" class="st2" width="7.1" height="7.1"/>
	<polygon class="st2" points="148.8,241 155.9,241 155.9,248 148.8,248 	"/>
	<rect x="134.6" y="241" class="st2" width="7.1" height="7.1"/>
	<rect x="248" y="141.7" class="st2" width="7.1" height="7.1"/>
	<polygon class="st2" points="240.9,141.7 240.9,134.7 248,134.7 248,141.7 	"/>
	<rect x="240.9" y="148.8" class="st2" width="7.1" height="7.1"/>
</g>
</svg>
