<?xml version="1.0" encoding="utf-8"?>
<!-- Generator: Adobe Illustrator 22.0.1, SVG Export Plug-In . SVG Version: 6.00 Build 0)  -->
<svg version="1.1" xmlns="http://www.w3.org/2000/svg" xmlns:xlink="http://www.w3.org/1999/xlink" x="0px" y="0px"
	 viewBox="0 0 290.6 304.7" style="enable-background:new 0 0 290.6 304.7;" xml:space="preserve">
<style type="text/css">
	.st0{display:none;}
	.st1{display:inline;}
	.st2{fill:#373531;}
	.st3{fill:#797258;}
	.st4{fill:#AE9880;}
</style>
<g id="BG" class="st0">
	<rect x="0" y="0" class="st1" width="290.6" height="304.7"/>
</g>
<g id="Bottom">
	<polygon class="st2" points="7.1,198.4 14.2,198.4 14.2,212.6 21.3,212.6 21.3,226.8 28.3,226.8 28.3,233.9 35.4,233.9 35.4,248 
		42.5,248 42.5,255.1 49.6,255.1 49.6,262.2 56.7,262.2 56.7,269.3 70.9,269.3 70.9,276.4 78,276.4 78,283.5 92.1,283.5 92.1,290.6 
		108.3,290.6 104.3,269.3 104.3,193.3 7.1,189.3 7.1,198.4 	"/>
	<polygon class="st2" points="191.4,195.8 184.3,273.6 182.3,290.6 198.4,290.6 198.4,283.5 212.6,283.5 212.6,276.3 219.7,276.3 
		219.7,269.2 233.9,269.2 233.9,262.2 240.9,262.2 240.9,255.1 248,255.1 248,248.1 255.1,248 255.1,233.9 262.2,233.9 262.2,226.8 
		269.3,226.8 269.3,212.6 276.4,212.6 276.4,198.4 283.5,198.4 283.5,190 269.3,190.9 	"/>
	<polygon class="st2" points="106.3,23.4 107.2,21.3 92.1,21.3 92.1,28.3 78,28.3 78,35.4 70.9,35.4 70.9,42.5 56.7,42.5 56.7,49.6 
		49.6,49.6 49.6,56.7 42.5,56.7 42.5,63.8 35.4,63.8 35.4,78 28.3,78 28.3,85 21.3,85 21.3,99.2 14.2,99.2 14.2,106.3 18.3,108.3 
		21.3,106 99.2,101.1 	"/>
	<polygon class="st2" points="184.3,25.5 182.3,21.3 198.4,21.3 198.4,28.3 212.6,28.3 212.6,35.4 219.7,35.4 219.7,42.5 
		233.9,42.5 233.9,49.6 240.9,49.6 240.9,56.7 248,56.7 248,63.8 255.1,63.8 255.1,78 262.2,78 262.2,85 269.3,85 269.3,99.2 
		276.4,99.2 276.4,113.1 272.3,114.3 269.3,112.9 191.3,103.7 	"/>
</g>
<g id="Edge">
	<polygon class="st3" points="191.3,269.3 191.3,283.5 184.3,283.5 184.3,290.6 177.2,290.6 177.2,297.6 113.3,297.6 113.4,290.6 
		106.3,290.6 106.3,283.5 99.2,283.5 99.2,269.3 106.3,271.4 113.4,278.7 120.5,281.5 170.1,281.5 177.2,280.5 184.3,273.6 
		191.3,269.3 	"/>
	<polygon class="st3" points="283.5,177.2 283.5,191.3 276.4,191.3 276.4,198.4 269.3,198.4 269.3,205.5 189.3,205.5 191.4,195.8 
		269.2,190.9 276.4,184 283.5,177.2 	"/>
	<polygon class="st3" points="7.1,191.3 14.2,191.3 14.2,198.4 21.3,198.4 21.3,205.5 101.2,205.5 99.2,193.2 26.3,189.3 21.3,184 
		14.2,176.7 7.1,175.2 	"/>
</g>
<g id="Kreuz">
	<g>
		<polygon class="st4" points="106.3,23.4 99.2,23.2 99.2,101.1 106.3,101.3 		"/>
		<polygon class="st4" points="184.3,103.5 191.3,103.7 191.3,25.7 184.3,25.5 		"/>
		<polygon class="st4" points="184.3,273.6 191.3,273.8 191.3,195.8 184.3,195.6 		"/>
		<polygon class="st4" points="106.3,193.4 99.2,193.2 99.2,271.2 106.3,271.4 		"/>
		<polygon class="st4" points="99.2,108.2 99.2,101.1 21.3,98.9 21.3,106 		"/>
		<polygon class="st4" points="191.3,110.8 269.3,112.9 269.3,105.9 191.3,103.7 191.3,110.8 		"/>
		<polygon class="st4" points="177.2,18.2 177.2,11.2 113.4,9.4 113.4,16.5 		"/>
		<polygon class="st4" points="276.4,120.2 276.4,184 283.5,184.2 283.5,120.4 		"/>
		<polygon class="st4" points="14.2,112.9 7.1,112.7 7.1,176.5 14.2,176.7 		"/>
		<polygon class="st4" points="113.4,23.6 113.4,16.5 106.3,16.3 106.3,23.4 113.4,23.6 		"/>
		<polygon class="st4" points="177.2,25.3 184.3,25.5 184.3,18.4 177.2,18.2 177.2,25.3 		"/>
		<polygon class="st4" points="21.3,106 14.2,105.8 14.2,112.9 21.3,113.1 		"/>
		<polygon class="st4" points="269.3,120 276.4,120.2 276.4,113.1 269.3,112.9 269.3,120 		"/>
		<polygon class="st4" points="113.4,278.7 113.4,285.8 177.2,287.5 177.2,280.5 		"/>
		<polygon class="st4" points="177.2,273.4 177.2,280.5 184.3,280.7 184.3,273.6 177.2,273.4 		"/>
		<polygon class="st4" points="113.4,271.6 106.3,271.4 106.3,278.6 113.4,278.7 113.4,271.6 		"/>
		<polygon class="st4" points="191.3,188.7 191.3,195.8 269.3,198 269.3,190.9 		"/>
		<polygon class="st4" points="269.3,190.9 276.4,191.1 276.4,184 269.3,183.8 		"/>
		<polygon class="st4" points="99.2,186.1 21.3,184 21.3,191.1 99.2,193.2 99.2,186.1 		"/>
		<polygon class="st4" points="21.3,176.9 14.2,176.7 14.2,183.8 21.3,184 21.3,176.9 		"/>
	</g>
	<polygon class="st2" points="141.7,38.5 148.8,38.7 148.8,45.7 141.7,45.5 	"/>
	<polygon class="st2" points="141.7,52.6 134.6,52.4 134.6,45.4 141.7,45.6 	"/>
	<polygon class="st2" points="155.9,45.9 155.9,53 148.8,52.8 148.8,45.7 	"/>
	<polygon class="st2" points="35.4,148.9 35.4,141.8 42.5,142 42.5,149.1 	"/>
	<polygon class="st2" points="49.6,149.3 49.6,156.4 42.5,156.2 42.5,149.1 	"/>
	<polygon class="st2" points="42.5,134.9 49.6,135.1 49.6,142.2 42.5,142 	"/>
	<polygon class="st2" points="148.8,258.3 141.7,258.1 141.7,251.1 148.8,251.3 	"/>
	<polygon class="st2" points="148.8,244.2 155.9,244.4 155.9,251.5 148.8,251.2 	"/>
	<polygon class="st2" points="134.6,250.9 134.6,243.8 141.7,244 141.7,251.1 	"/>
	<polygon class="st2" points="255.1,147.9 255.1,155 248,154.8 248,147.7 	"/>
	<polygon class="st2" points="240.9,147.5 240.9,140.4 248,140.6 248,147.7 	"/>
	<polygon class="st2" points="248,161.9 240.9,161.7 240.9,154.6 248,154.8 	"/>
</g>
</svg>
