<?xml version="1.0" encoding="utf-8"?>
<!-- Generator: Adobe Illustrator 22.0.1, SVG Export Plug-In . SVG Version: 6.00 Build 0)  -->
<svg version="1.1" xmlns="http://www.w3.org/2000/svg" xmlns:xlink="http://www.w3.org/1999/xlink" x="0px" y="0px"
	 viewBox="0 0 290.6 304.7" style="enable-background:new 0 0 290.6 304.7;" xml:space="preserve">
<style type="text/css">
	.st0{display:none;}
	.st1{display:inline;}
	.st2{fill:#373531;}
	.st3{fill:#797258;}
	.st4{fill:#AE9880;}
</style>
<g id="BG" class="st0">
	
		<rect x="0" y="0" transform="matrix(-1 -1.224647e-16 1.224647e-16 -1 290.5512 304.7244)" class="st1" width="290.6" height="304.7"/>
</g>
<g id="Bottom">
	<polygon class="st2" points="283.5,198.4 276.4,198.4 276.4,212.6 269.3,212.6 269.3,226.8 262.2,226.8 262.2,233.9 255.1,233.9 
		255.1,248 248,248 248,255.1 240.9,255.1 240.9,262.2 233.9,262.2 233.9,269.3 219.7,269.3 219.7,276.4 212.6,276.4 212.6,283.5 
		198.4,283.5 198.4,290.6 182.3,290.6 186.3,269.3 186.3,193.3 283.5,189.3 283.5,198.4 	"/>
	<polygon class="st2" points="99.2,195.8 106.3,273.6 108.3,290.6 92.1,290.6 92.1,283.5 77.9,283.5 78,276.3 70.9,276.3 
		70.9,269.2 56.7,269.2 56.7,262.2 49.6,262.2 49.6,255.1 42.5,255.1 42.5,248.1 35.4,248 35.4,233.9 28.3,233.9 28.3,226.8 
		21.3,226.8 21.3,212.6 14.2,212.6 14.2,198.4 7.1,198.4 7.1,190 21.3,190.9 	"/>
	<polygon class="st2" points="184.3,23.4 183.3,21.3 198.4,21.3 198.4,28.3 212.6,28.3 212.6,35.4 219.7,35.4 219.7,42.5 
		233.9,42.5 233.9,49.6 240.9,49.6 240.9,56.7 248,56.7 248,63.8 255.1,63.8 255.1,78 262.2,78 262.2,85 269.3,85 269.3,99.2 
		276.4,99.2 276.4,106.3 272.3,108.3 269.3,106 191.3,101.1 	"/>
	<polygon class="st2" points="106.3,25.5 108.2,21.3 92.1,21.3 92.1,28.3 78,28.3 78,35.4 70.9,35.4 70.9,42.5 56.7,42.5 56.7,49.6 
		49.6,49.6 49.6,56.7 42.5,56.7 42.5,63.8 35.4,63.8 35.4,78 28.3,78 28.3,85 21.3,85 21.3,99.2 14.2,99.2 14.2,113.1 18.3,114.3 
		21.3,112.9 99.2,103.7 	"/>
</g>
<g id="Edge">
	<polygon class="st3" points="99.2,269.3 99.2,283.5 106.3,283.5 106.3,290.6 113.4,290.6 113.4,297.6 177.3,297.6 177.2,290.6 
		184.3,290.6 184.3,283.5 191.3,283.5 191.3,269.3 184.3,271.4 177.2,278.7 170.1,281.5 120.5,281.5 113.4,280.5 106.3,273.6 
		99.2,269.3 	"/>
	<polygon class="st3" points="7.1,177.2 7.1,191.3 14.2,191.3 14.2,198.4 21.3,198.4 21.3,205.5 101.2,205.5 99.2,195.8 21.3,190.9 
		14.2,184 7.1,177.2 	"/>
	<polygon class="st3" points="283.5,191.3 276.4,191.3 276.4,198.4 269.3,198.4 269.3,205.5 189.3,205.5 191.3,193.2 264.2,189.3 
		269.3,184 276.4,176.7 283.5,175.2 	"/>
</g>
<g id="Kreuz">
	<g>
		<polygon class="st4" points="184.3,23.4 191.3,23.2 191.3,101.1 184.3,101.3 		"/>
		<polygon class="st4" points="106.3,103.5 99.2,103.7 99.2,25.7 106.3,25.5 		"/>
		<polygon class="st4" points="106.3,273.6 99.2,273.8 99.2,195.8 106.3,195.6 		"/>
		<polygon class="st4" points="184.3,193.4 191.3,193.2 191.3,271.2 184.3,271.4 		"/>
		<polygon class="st4" points="191.3,108.2 191.3,101.1 269.3,98.9 269.3,106 		"/>
		<polygon class="st4" points="99.2,110.8 21.3,112.9 21.3,105.9 99.2,103.7 99.2,110.8 		"/>
		<polygon class="st4" points="113.4,18.2 113.4,11.2 177.2,9.4 177.2,16.5 		"/>
		<polygon class="st4" points="14.2,120.2 14.2,184 7.1,184.2 7.1,120.4 		"/>
		<polygon class="st4" points="276.4,112.9 283.5,112.7 283.5,176.5 276.4,176.7 		"/>
		<polygon class="st4" points="177.2,23.6 177.2,16.5 184.3,16.3 184.3,23.4 177.2,23.6 		"/>
		<polygon class="st4" points="113.4,25.3 106.3,25.5 106.3,18.4 113.4,18.2 113.4,25.3 		"/>
		<polygon class="st4" points="269.3,106 276.4,105.8 276.4,112.9 269.3,113.1 		"/>
		<polygon class="st4" points="21.3,120 14.2,120.2 14.2,113.1 21.3,112.9 21.3,120 		"/>
		<polygon class="st4" points="177.2,278.7 177.2,285.8 113.4,287.5 113.4,280.5 		"/>
		<polygon class="st4" points="113.4,273.4 113.4,280.5 106.3,280.7 106.3,273.6 113.4,273.4 		"/>
		<polygon class="st4" points="177.2,271.6 184.3,271.4 184.3,278.6 177.2,278.7 177.2,271.6 		"/>
		<polygon class="st4" points="99.2,188.7 99.2,195.8 21.3,198 21.3,190.9 		"/>
		<polygon class="st4" points="21.3,190.9 14.2,191.1 14.2,184 21.3,183.8 		"/>
		<polygon class="st4" points="191.4,186.1 269.3,184 269.3,191.1 191.3,193.2 191.4,186.1 		"/>
		<polygon class="st4" points="269.3,176.9 276.4,176.7 276.4,183.8 269.3,184 269.3,176.9 		"/>
	</g>
	<polygon class="st2" points="148.8,38.5 141.7,38.7 141.7,45.7 148.8,45.5 	"/>
	<polygon class="st2" points="148.8,52.6 155.9,52.4 155.9,45.4 148.8,45.6 	"/>
	<polygon class="st2" points="134.6,45.9 134.6,53 141.7,52.8 141.7,45.7 	"/>
	<polygon class="st2" points="255.1,148.9 255.1,141.8 248,142 248,149.1 	"/>
	<polygon class="st2" points="240.9,149.3 240.9,156.4 248,156.2 248,149.1 	"/>
	<polygon class="st2" points="248,134.9 240.9,135.1 240.9,142.2 248,142 	"/>
	<polygon class="st2" points="141.7,258.3 148.8,258.1 148.8,251.1 141.7,251.3 	"/>
	<polygon class="st2" points="141.7,244.2 134.6,244.4 134.6,251.5 141.7,251.2 	"/>
	<polygon class="st2" points="155.9,250.9 155.9,243.8 148.8,244 148.8,251.1 	"/>
	<polygon class="st2" points="35.4,147.9 35.4,155 42.5,154.8 42.5,147.7 	"/>
	<polygon class="st2" points="49.6,147.5 49.6,140.4 42.5,140.6 42.5,147.7 	"/>
	<polygon class="st2" points="42.5,161.9 49.6,161.7 49.6,154.6 42.5,154.8 	"/>
</g>
</svg>
