<?xml version="1.0" encoding="utf-8"?>
<!-- Generator: Adobe Illustrator 22.0.1, SVG Export Plug-In . SVG Version: 6.00 Build 0)  -->
<svg version="1.1" xmlns="http://www.w3.org/2000/svg" xmlns:xlink="http://www.w3.org/1999/xlink" x="0px" y="0px"
	 viewBox="0 0 290.6 304.7" style="enable-background:new 0 0 290.6 304.7;" xml:space="preserve">
<style type="text/css">
	.st0{display:none;}
	.st1{display:inline;}
	.st2{fill:#373531;}
	.st3{fill:#797258;}
	.st4{fill:#AE9880;}
</style>
<g id="BG" class="st0">
	<rect x="0" y="0" class="st1" width="290.6" height="304.7"/>
</g>
<g id="Bottom">
	<polygon class="st2" points="7.1,198.4 14.2,198.4 14.2,212.6 21.3,212.6 21.3,226.8 28.3,226.8 28.3,233.9 35.4,233.9 35.4,248 
		42.5,248 42.5,255.1 49.6,255.1 49.6,262.2 56.7,262.2 56.7,269.3 70.9,269.3 70.9,276.4 78,276.4 78,283.5 92.1,283.5 92.1,290.6 
		106.3,290.6 108.1,281.8 104.3,269.3 99.2,193.7 10.2,189.5 7.1,191.3 7.1,198.4 	"/>
	<polygon class="st2" points="191.3,193.7 184.3,269.7 181.8,282.1 184.3,290.6 198.4,290.6 198.4,283.5 212.6,283.5 212.6,276.3 
		219.7,276.3 219.7,269.2 233.9,269.2 233.9,262.2 240.9,262.2 240.9,255.1 248,255.1 248,248.1 255.1,248 255.1,233.9 262.2,233.9 
		262.2,226.8 269.3,226.8 269.3,212.6 276.4,212.6 276.4,198.4 283.5,198.4 283.5,191.3 278.4,189.6 	"/>
	<polygon class="st2" points="106.3,28 107.5,21.3 92.1,21.3 92.1,28.3 78,28.3 78,35.4 70.9,35.4 70.9,42.5 56.7,42.5 56.7,49.6 
		49.6,49.6 49.6,56.7 42.5,56.7 42.5,63.8 35.4,63.8 35.4,78 28.3,78 28.3,85 21.3,85 21.3,99.2 14.2,99.2 14.2,110.8 18.3,112.8 
		21.3,110.8 99.2,104 	"/>
	<polygon class="st2" points="184.3,28 183.4,21.3 198.4,21.3 198.4,28.3 212.6,28.3 212.6,35.4 219.7,35.4 219.7,42.5 233.9,42.5 
		233.9,49.6 240.9,49.6 240.9,56.7 248,56.7 248,63.8 255.1,63.8 255.1,78 262.2,78 262.2,85 269.3,85 269.3,99.2 276.4,99.2 
		276.4,110.8 272.3,112.1 269.3,110.8 191.3,103.9 	"/>
</g>
<g id="Edge">
	<polygon class="st3" points="191.3,269.3 191.3,283.5 184.3,283.5 184.3,290.6 177.2,290.6 177.2,297.6 113.3,297.6 113.4,290.6 
		106.3,290.6 106.3,283.5 99.2,283.5 99.2,269.3 105.3,268.3 106.3,269.7 113.4,276.6 119.5,280.3 177.2,276.6 184.3,269.7 
		189.5,264 191.3,269.3 	"/>
	<polygon class="st3" points="283.5,177.2 283.5,191.3 276.4,191.3 276.4,198.4 269.3,198.4 269.3,205.5 189.3,205.5 191.3,193.7 
		269.3,186.8 276.4,179.8 279.2,178 283.5,177.2 	"/>
	<polygon class="st3" points="7.1,179.9 7.1,191.3 14.2,191.3 14.2,198.4 21.3,198.4 21.3,205.5 101.2,205.5 99.2,193.7 21.3,186.8 
		14.2,179.9 13.2,176.2 	"/>
</g>
<g id="Kreuz">
	<g>
		<polygon class="st4" points="106.3,28 99.2,28 99.2,103.9 106.3,104 		"/>
		<rect x="184.3" y="28" class="st4" width="7.1" height="76"/>
		<rect x="184.3" y="193.7" class="st4" width="7.1" height="76"/>
		<rect x="99.2" y="193.7" class="st4" width="7.1" height="76"/>
		<rect x="21.3" y="103.9" class="st4" width="78" height="6.9"/>
		<polygon class="st4" points="191.3,110.8 269.3,110.8 269.3,103.9 191.3,103.9 191.3,110.8 		"/>
		<rect x="113.4" y="14.2" class="st4" width="63.8" height="6.9"/>
		<polygon class="st4" points="276.4,117.7 276.4,179.9 283.5,179.9 283.5,117.7 		"/>
		<rect x="7.1" y="117.7" class="st4" width="7.1" height="62.1"/>
		<polygon class="st4" points="113.4,28 113.4,21.1 106.3,21.1 106.3,28 113.4,28 		"/>
		<polygon class="st4" points="177.2,28 184.3,28 184.3,21.1 177.2,21.1 177.2,28 		"/>
		<rect x="14.2" y="110.8" class="st4" width="7.1" height="6.9"/>
		<polygon class="st4" points="269.3,117.7 276.4,117.7 276.4,110.8 269.3,110.8 269.3,117.7 		"/>
		<rect x="113.4" y="276.6" class="st4" width="63.8" height="6.9"/>
		<polygon class="st4" points="177.2,269.7 177.2,276.6 184.3,276.6 184.3,269.7 177.2,269.7 		"/>
		<polygon class="st4" points="113.4,269.7 106.3,269.7 106.3,276.6 113.4,276.6 113.4,269.7 		"/>
		<rect x="191.3" y="186.8" class="st4" width="78" height="6.9"/>
		<rect x="269.3" y="179.9" class="st4" width="7.1" height="6.9"/>
		<polygon class="st4" points="99.2,186.8 21.3,186.8 21.3,193.7 99.2,193.7 99.2,186.8 		"/>
		<polygon class="st4" points="21.3,179.9 14.2,179.9 14.2,186.8 21.3,186.8 21.3,179.9 		"/>
	</g>
	<rect x="141.7" y="41.8" class="st2" width="7.1" height="6.9"/>
	<polygon class="st2" points="141.7,55.6 134.6,55.6 134.6,48.7 141.7,48.7 	"/>
	<rect x="148.8" y="48.7" class="st2" width="7.1" height="6.9"/>
	<rect x="35.4" y="145.4" class="st2" width="7.1" height="6.9"/>
	<polygon class="st2" points="49.6,152.3 49.6,159.2 42.5,159.2 42.5,152.3 	"/>
	<rect x="42.5" y="138.5" class="st2" width="7.1" height="6.9"/>
	<rect x="141.7" y="248.9" class="st2" width="7.1" height="6.9"/>
	<polygon class="st2" points="148.8,242 155.9,242 155.9,248.9 148.8,248.9 	"/>
	<rect x="134.6" y="242" class="st2" width="7.1" height="6.9"/>
	<rect x="248" y="145.4" class="st2" width="7.1" height="6.9"/>
	<polygon class="st2" points="240.9,145.4 240.9,138.5 248,138.5 248,145.4 	"/>
	<rect x="240.9" y="152.3" class="st2" width="7.1" height="6.9"/>
</g>
</svg>
