<?xml version="1.0" encoding="utf-8"?>
<!-- Generator: Adobe Illustrator 22.0.1, SVG Export Plug-In . SVG Version: 6.00 Build 0)  -->
<svg version="1.1" xmlns="http://www.w3.org/2000/svg" xmlns:xlink="http://www.w3.org/1999/xlink" x="0px" y="0px"
	 viewBox="0 0 290.6 304.7" style="enable-background:new 0 0 290.6 304.7;" xml:space="preserve">
<style type="text/css">
	.st0{display:none;}
	.st1{display:inline;}
	.st2{fill:#373531;}
	.st3{fill:#797258;}
	.st4{fill:#AE9880;}
</style>
<g id="BG" class="st0">
	<rect x="0" class="st1" width="290.6" height="304.7"/>
</g>
<g id="Bottom">
	<polygon class="st2" points="7.1,198.4 14.2,198.4 14.2,212.6 21.3,212.6 21.3,226.8 28.3,226.8 28.3,233.9 35.4,233.9 35.4,248 
		42.5,248 42.5,255.1 49.6,255.1 49.6,262.2 56.7,262.2 56.7,269.3 70.9,269.3 70.9,276.4 78,276.4 78,283.5 92.1,283.5 92.1,290.6 
		108.3,290.6 104.3,269.3 99.2,196.1 13.9,189.9 7.1,191.4 7.1,198.4 	"/>
	<polygon class="st2" points="191.3,196.1 184.3,276 181.8,283 184.3,290.6 198.4,290.6 198.4,283.5 212.6,283.5 212.6,276.4 
		219.7,276.4 219.7,269.2 233.9,269.2 233.9,262.2 240.9,262.2 240.9,255.1 248,255.1 248,248.1 255.1,248 255.1,233.9 262.2,233.9 
		262.2,226.8 269.3,226.8 269.3,212.6 276.4,212.6 276.4,198.4 283.5,198.4 283.5,191.4 274.7,190 	"/>
	<polygon class="st2" points="101.2,35.4 106.4,21.3 92.1,21.3 92.1,28.4 78,28.4 78,35.4 70.9,35.4 70.9,42.5 56.7,42.5 56.7,49.6 
		49.6,49.6 49.6,56.7 42.5,56.7 42.5,63.8 35.4,63.8 35.4,78 28.3,78 28.3,85.1 21.3,85.1 21.3,99.2 14.2,99.2 14.2,108.9 
		17.7,110.4 21.3,108.9 99.2,101.6 	"/>
	<polygon class="st2" points="189.3,35.4 184.1,21.3 198.4,21.3 198.4,28.4 212.6,28.4 212.6,35.4 219.7,35.4 219.7,42.5 
		233.9,42.5 233.9,49.6 240.9,49.6 240.9,56.7 248,56.7 248,63.8 255.1,63.8 255.1,78 262.2,78 262.2,85.1 269.3,85.1 269.3,99.2 
		276.4,99.2 276.4,108.9 272.1,110.1 269.3,108.9 191.3,101.6 	"/>
</g>
<g id="Edge">
	<polygon class="st3" points="191.3,269.3 191.3,283.5 184.3,283.5 184.3,290.6 177.2,290.6 177.2,297.7 113.3,297.6 113.4,290.6 
		106.3,290.6 106.3,283.5 99.2,283.5 99.2,269.3 106.3,276 113.4,283.3 129.9,287.7 177.2,283.3 184.3,276 185.3,268.3 191.3,269.3 
			"/>
	<polygon class="st3" points="283.5,177.2 283.5,191.4 276.4,191.4 276.4,198.4 269.3,198.4 269.3,205.5 189.3,205.5 191.3,196.1 
		269.3,188.8 276.4,181.5 277.4,176.2 283.5,177.2 	"/>
	<polygon class="st3" points="7.1,177.2 7.1,191.4 14.2,191.4 14.2,198.4 21.3,198.4 21.3,205.5 101.2,205.5 99.2,196.1 21.3,188.8 
		14.2,181.5 13.2,176.2 7.1,177.2 	"/>
</g>
<g id="Kreuz">
	<g>
		<polygon class="st4" points="106.3,21.6 99.2,21.6 99.2,101.6 106.3,101.6 		"/>
		<rect x="184.3" y="21.6" class="st4" width="7.1" height="80"/>
		<rect x="184.3" y="196.1" class="st4" width="7.1" height="80"/>
		<rect x="99.2" y="196.1" class="st4" width="7.1" height="80"/>
		<rect x="21.3" y="101.6" class="st4" width="78" height="7.3"/>
		<polygon class="st4" points="191.3,108.9 269.3,108.9 269.3,101.6 191.3,101.6 191.3,108.9 		"/>
		<rect x="113.4" y="7.1" class="st4" width="63.8" height="7.3"/>
		<polygon class="st4" points="276.4,116.1 276.4,181.5 283.5,181.6 283.5,116.1 		"/>
		<rect x="7.1" y="116.1" class="st4" width="7.1" height="65.4"/>
		<polygon class="st4" points="113.4,21.6 113.4,14.4 106.3,14.4 106.3,21.6 113.4,21.6 		"/>
		<polygon class="st4" points="177.2,21.6 184.3,21.6 184.3,14.4 177.2,14.4 177.2,21.6 		"/>
		<rect x="14.2" y="108.9" class="st4" width="7.1" height="7.3"/>
		<polygon class="st4" points="269.3,116.1 276.4,116.1 276.4,108.9 269.3,108.9 269.3,116.1 		"/>
		<rect x="113.4" y="283.3" class="st4" width="63.8" height="7.3"/>
		<polygon class="st4" points="177.2,276 177.2,283.3 184.3,283.3 184.3,276 177.2,276 		"/>
		<polygon class="st4" points="113.4,276 106.3,276 106.3,283.3 113.4,283.3 113.4,276 		"/>
		<rect x="191.3" y="188.8" class="st4" width="78" height="7.3"/>
		<rect x="269.3" y="181.5" class="st4" width="7.1" height="7.3"/>
		<polygon class="st4" points="99.2,188.8 21.3,188.8 21.3,196.1 99.2,196.1 99.2,188.8 		"/>
		<polygon class="st4" points="21.3,181.5 14.2,181.5 14.2,188.8 21.3,188.8 21.3,181.5 		"/>
	</g>
	<rect x="141.7" y="36.2" class="st2" width="7.1" height="7.3"/>
	<polygon class="st2" points="141.7,50.7 134.6,50.7 134.6,43.4 141.7,43.5 	"/>
	<rect x="148.8" y="43.4" class="st2" width="7.1" height="7.3"/>
	<rect x="35.4" y="145.2" class="st2" width="7.1" height="7.3"/>
	<polygon class="st2" points="49.6,152.5 49.6,159.7 42.5,159.7 42.5,152.5 	"/>
	<rect x="42.5" y="137.9" class="st2" width="7.1" height="7.3"/>
	<rect x="141.7" y="254.2" class="st2" width="7.1" height="7.3"/>
	<polygon class="st2" points="148.8,247 155.9,247 155.9,254.2 148.8,254.2 	"/>
	<rect x="134.6" y="247" class="st2" width="7.1" height="7.3"/>
	<rect x="248" y="145.2" class="st2" width="7.1" height="7.3"/>
	<polygon class="st2" points="240.9,145.2 240.9,137.9 248,137.9 248,145.2 	"/>
	<rect x="240.9" y="152.5" class="st2" width="7.1" height="7.3"/>
</g>
</svg>
